<svg xmlns="http://www.w3.org/2000/svg" width="12" height="12" fill="none" style=""><rect id="backgroundrect" width="100%" height="100%" x="0" y="0" fill="none" stroke="none"/>

<g class="currentLayer" style=""><title>Layer 1</title><path d="M6,6 C7.6575,6 9,4.6575 9,3 C9,1.3425 7.6575,0 6,0 C4.3425,0 3,1.3425 3,3 C3,4.6575 4.3425,6 6,6 zM6,7.5 C3.9975,7.5 0,8.505 0,10.5 V11.25 C0,11.6625 0.3375000000000002,12 0.7500000000000002,12 H11.25 C11.6625,12 12,11.6625 12,11.25 V10.5 C12,8.505 8.0025,7.5 6,7.5 z" fill="#2196f3" id="svg_1" class="selected" fill-opacity="1"/></g></svg>